<svg xmlns="http://www.w3.org/2000/svg" version="1.1" xmlns:xlink="http://www.w3.org/1999/xlink" xmlns:svgjs="http://svgjs.dev/svgjs" width="44" height="44"><svg width="44" height="44" viewBox="0 0 44 44" fill="none" xmlns="http://www.w3.org/2000/svg">
<path d="M20.0907 0.270276L20.0633 0.122801L20.0907 0.270275C21.1789 0.0680331 22.0699 0.120732 22.8128 0.429109C23.5542 0.736855 24.1652 1.30637 24.6813 2.17004C25.9876 4.35655 25.911 7.11086 24.4138 10.1742C23.3016 12.4499 22.2098 13.9323 21.0478 14.7167C19.8982 15.4928 18.6653 15.5954 17.2313 15.0734C16.5144 14.8125 16.0916 14.5942 15.7565 14.2346C15.4176 13.8706 15.1568 13.3498 14.7979 12.4521C13.7451 9.81849 13.8794 6.9898 14.8741 4.71034C15.8689 2.43074 17.7182 0.711169 20.0907 0.270276ZM32.7903 4.9113L32.7903 4.9113C34.3651 4.71608 35.6657 4.98579 36.6538 5.66667C37.6413 6.34724 38.3354 7.45157 38.6725 8.96245C39.0889 10.8293 38.6084 13.1532 37.559 15.2376C36.51 17.3214 34.9065 19.1376 33.1111 20.0024L33.1762 20.1375L33.1111 20.0024C31.8569 20.6067 30.7253 20.7859 29.7617 20.6209C28.8001 20.4563 27.9932 19.9471 27.3872 19.1503C26.1708 17.5512 25.7577 14.7801 26.5971 11.3318C26.8901 10.1283 27.1011 9.42662 27.4465 8.82486C27.7916 8.22384 28.276 7.71336 29.1381 6.90489L29.1381 6.90488C30.5121 5.61588 31.5331 5.06689 32.7903 4.9113ZM18.6334 22.1011L18.6334 22.1011C19.9875 22.0742 21.1601 22.5008 22.1076 23.3343C23.0572 24.1696 23.789 25.4212 24.2432 27.0555L24.3877 27.0153L24.2432 27.0555C25.4227 31.2996 26.3222 33.0917 28.2885 35.058C29.5154 36.285 30.2463 37.3048 30.5422 38.2303C30.8343 39.1443 30.7063 39.9798 30.1786 40.8588C29.7215 41.6203 29.1983 42.1757 28.5825 42.5345C27.9676 42.8928 27.2502 43.0611 26.3941 43.0322C24.6728 42.9741 22.4069 42.12 19.3426 40.4322C17.2648 39.2879 16.191 38.7 15.1032 38.334C14.0139 37.9675 12.9136 37.8244 10.7892 37.5546L10.7703 37.7034L10.7892 37.5546C8.28471 37.2369 6.64709 36.8867 5.47214 36.3275C4.30755 35.7732 3.59021 35.0099 2.93749 33.8405L2.80651 33.9136L2.93748 33.8404C2.47007 33.0033 2.39691 32.0143 2.58987 31.0504C2.7813 30.0942 3.23287 29.1735 3.80375 28.4721C5.61103 27.2659 6.93384 26.7297 8.58148 26.0618C9.15969 25.8275 9.77789 25.5769 10.4711 25.2754L10.4725 25.2748C12.415 24.4054 14.3095 23.6128 15.7964 23.0362C16.5401 22.7479 17.1805 22.5141 17.6734 22.3519C17.92 22.2708 18.1281 22.208 18.293 22.1654C18.4617 22.1217 18.5736 22.1022 18.6334 22.1011ZM3.04112 23.66C2.10132 23.1446 1.36305 22.2851 0.825451 21.0593C-0.953652 17.0009 0.880008 12.5283 5.18991 10.4939C6.53664 9.85821 7.46247 9.60225 8.23761 9.72089C9.00496 9.83834 9.65912 10.3291 10.4469 11.2858C11.0023 11.9604 11.4241 13.1424 11.6239 14.391C11.8235 15.6389 11.7955 16.9163 11.4832 17.7743C11.0775 18.889 10.2713 20.1274 9.31561 21.1992C8.35916 22.2718 7.26586 23.1631 6.29548 23.5961C5.44098 23.9774 4.94363 24.1549 4.50587 24.1624C4.0757 24.1698 3.68466 24.0129 3.04113 23.66L2.96899 23.7915L3.04112 23.66ZM30.159 27.3676C30.95 25.9632 32.5796 24.4097 34.335 23.209C35.2109 22.6099 36.1132 22.1022 36.9507 21.7467C37.7909 21.3902 38.5545 21.1918 39.1567 21.1995C40.8781 21.2215 42.1039 22.2559 42.6407 23.7655C43.1793 25.2801 43.0223 27.276 41.9471 29.1853C41.4152 30.1296 40.4145 31.2369 39.2983 32.1948C38.1814 33.1534 36.967 33.9468 36.0164 34.2766C33.7093 35.0773 31.6558 34.3938 30.4742 32.9995C29.2929 31.6054 28.9677 29.4829 30.159 27.3676Z" fill="#921FED" stroke="#090808" stroke-width="0.3"></path>
<path d="M23.0922 25.9793C22.0692 24.6237 21.6971 22.9641 21.9063 21.4848C22.1156 20.0052 22.9032 18.7189 24.187 18.0861L24.1207 17.9516L24.187 18.0861C24.7789 17.7944 25.2919 17.6848 25.7568 17.7424C26.2201 17.7999 26.6543 18.0257 27.0852 18.4402C28.1744 19.4879 28.5711 21.0879 28.1964 23.1097C27.9169 24.6179 27.5237 25.6495 26.9858 26.2849C26.4576 26.9089 25.779 27.1634 24.8804 27.0927C24.4251 27.0568 24.157 26.9987 23.9177 26.8507C23.6734 26.6996 23.4445 26.446 23.0922 25.9793ZM23.0922 25.9793L22.9725 26.0697L23.0922 25.9793ZM32.2921 18.7371L32.2921 18.7371C33.164 18.3713 33.9457 18.3209 34.6103 18.5522C35.2744 18.7834 35.8437 19.3037 36.2762 20.1224C36.8086 21.1301 36.9038 22.5518 36.6311 23.933C36.3585 25.3135 35.7244 26.6224 34.8346 27.4085L34.8346 27.4085C34.2111 27.9595 33.5949 28.2411 33.0251 28.2996C32.4575 28.358 31.9232 28.1965 31.4553 27.8379C30.5136 27.1161 29.8325 25.5843 29.7666 23.4407C29.7435 22.6893 29.7538 22.2524 29.8554 21.8533C29.9567 21.4552 30.1516 21.0846 30.5218 20.4719L30.5218 20.4719C31.1083 19.5011 31.604 19.0256 32.2921 18.7371ZM18.0379 34.4193L18.0033 34.5652L18.0379 34.4193C17.4261 34.2744 16.8709 33.9011 16.3689 33.2797C14.7085 31.2236 15.0466 28.3464 17.1984 26.4753C17.8766 25.8856 18.3606 25.5967 18.8096 25.5424C19.2506 25.4892 19.693 25.659 20.2996 26.0876C20.7172 26.3828 21.1459 26.9941 21.4602 27.6877C21.7741 28.3804 21.9585 29.1212 21.9161 29.6596C21.8603 30.3678 21.5942 31.2154 21.2141 31.9928C20.8334 32.7713 20.3468 33.462 19.8624 33.8654C19.4267 34.2281 19.1757 34.4044 18.9366 34.4759C18.7049 34.5452 18.4669 34.5208 18.0379 34.4193ZM26.8332 31.0882L26.8333 31.0882C27.6003 30.8566 28.3329 30.9147 29.0017 31.241C29.6731 31.5686 30.2904 32.1717 30.8117 33.0463C32.1786 35.3395 32.994 36.2509 34.4624 37.0882C35.368 37.6047 35.9453 38.0762 36.2574 38.5571C36.563 39.028 36.6219 39.5196 36.4607 40.1054C36.3196 40.6181 36.1092 41.0182 35.8183 41.3191C35.5281 41.6192 35.1496 41.8292 34.6579 41.9492C33.6655 42.1912 32.2269 42.0635 30.1803 41.575C28.794 41.2442 28.0709 41.0733 27.3747 41.0357C26.677 40.9981 26.0094 41.0945 24.7361 41.2817L24.7361 41.2817C23.2332 41.5028 22.2359 41.5627 21.4754 41.4286C20.7262 41.2965 20.1987 40.9745 19.6393 40.4037L19.6393 40.4037C19.2464 40.0029 19.049 39.4512 19.0071 38.8662C18.9656 38.2888 19.0767 37.69 19.2893 37.1971C20.137 36.2077 20.8112 35.6846 21.6561 35.0291C21.9543 34.7978 22.2738 34.5499 22.6297 34.2592L22.631 34.2581C23.6173 33.4348 24.588 32.6643 25.3568 32.0864C25.7414 31.7973 26.0744 31.5573 26.333 31.3831C26.4624 31.296 26.5719 31.2263 26.6591 31.1755C26.7498 31.1226 26.8062 31.0964 26.8332 31.0882ZM19.5322 40.5087C20.6846 41.6846 21.7503 41.8727 24.758 41.4301L19.5322 40.5087ZM34.4018 32.2517C34.6323 31.3143 35.322 30.1494 36.1446 29.1657C36.5544 28.6755 36.9935 28.235 37.4185 27.8941C37.8458 27.5513 38.2492 27.3171 38.5878 27.2269C39.5618 26.9674 40.4137 27.3596 40.9547 28.1371C41.4988 28.9191 41.7267 30.0936 41.4128 31.3708C41.258 32.0001 40.8592 32.8035 40.3675 33.542C39.8752 34.2813 39.3031 34.9353 38.8136 35.2765C37.6234 36.106 36.3504 36.0383 35.4636 35.4302C34.5767 34.8221 34.0555 33.6597 34.4018 32.2517Z" fill="#FFCF32" stroke="#090808" stroke-width="0.3"></path>
</svg><style>@media (prefers-color-scheme: light) { :root { filter: none; } }
@media (prefers-color-scheme: dark) { :root { filter: none; } }
</style></svg>