<svg width="201" height="44" viewBox="0 0 201 44" fill="none" xmlns="http://www.w3.org/2000/svg">
<path d="M2.7 27V11.76L2.4 9.36H16.32C18.74 9.36 20.55 9.84 21.75 10.8C22.97 11.76 23.58 13.26 23.58 15.3V21.03C23.58 23.11 22.98 24.63 21.78 25.59C20.58 26.53 18.76 27 16.32 27H2.7ZM8.55 22.86H15.42C16.96 22.86 17.74 22.15 17.76 20.73V15.54C17.76 14.96 17.59 14.47 17.25 14.07C16.91 13.65 16.3 13.44 15.42 13.44H8.55V22.86ZM31.4611 27C30.1411 27 29.1511 26.81 28.4911 26.43C27.8311 26.05 27.3911 25.53 27.1711 24.87C26.9711 24.19 26.8711 23.41 26.8711 22.53V18C26.8711 17.16 26.9811 16.41 27.2011 15.75C27.4211 15.07 27.8511 14.54 28.4911 14.16C29.1511 13.76 30.1411 13.56 31.4611 13.56H39.8011C41.1211 13.56 42.1011 13.76 42.7411 14.16C43.4011 14.54 43.8311 15.07 44.0311 15.75C44.2511 16.41 44.3611 17.16 44.3611 18V22.53C44.3611 23.41 44.2511 24.19 44.0311 24.87C43.8311 25.53 43.4011 26.05 42.7411 26.43C42.1011 26.81 41.1211 27 39.8011 27H31.4611ZM33.8611 23.22H37.4311C38.3911 23.22 38.8611 22.82 38.8411 22.02V18.54C38.8411 18.14 38.7311 17.84 38.5111 17.64C38.3111 17.44 37.9511 17.34 37.4311 17.34H33.8911C33.3711 17.34 33.0011 17.44 32.7811 17.64C32.5611 17.84 32.4511 18.14 32.4511 18.54V22.02C32.4311 22.82 32.9011 23.22 33.8611 23.22ZM56.9196 32.28C54.8596 32.28 53.1796 32.24 51.8796 32.16C50.5796 32.1 49.5796 32.01 48.8796 31.89C48.1796 31.77 47.6996 31.63 47.4396 31.47C47.1796 31.33 47.0496 31.19 47.0496 31.05L48.5496 27.9C48.7696 27.96 49.2596 28.07 50.0196 28.23C50.7796 28.41 51.8896 28.5 53.3496 28.5H57.8796C58.3996 28.5 58.7696 28.41 58.9896 28.23C59.2296 28.05 59.3396 27.74 59.3196 27.3V26.07C58.6996 26.25 57.8296 26.4 56.7096 26.52C55.6096 26.62 54.3196 26.67 52.8396 26.67H51.9696C50.6496 26.67 49.6596 26.49 48.9996 26.13C48.3596 25.75 47.9296 25.23 47.7096 24.57C47.5096 23.91 47.4096 23.12 47.4096 22.2V18C47.4096 17.52 47.4596 17.02 47.5596 16.5C47.6796 15.98 47.8896 15.5 48.1896 15.06C48.5096 14.62 48.9696 14.26 49.5696 13.98C50.1896 13.7 50.9896 13.56 51.9696 13.56H52.8696C54.2696 13.56 55.4096 13.58 56.2896 13.62C57.1696 13.66 57.8696 13.71 58.3896 13.77C58.9296 13.83 59.3796 13.89 59.7396 13.95L60.5196 13.56H64.7796V27.84C64.7796 29.16 64.3596 30.23 63.5196 31.05C62.6796 31.87 61.2796 32.28 59.3196 32.28H56.9196ZM54.3996 22.89H58.3896C58.8496 22.89 59.1196 22.85 59.1996 22.77C59.2796 22.69 59.3196 22.43 59.3196 21.99V17.55C58.8796 17.51 58.4496 17.48 58.0296 17.46C57.6296 17.42 57.1696 17.39 56.6496 17.37C56.1496 17.35 55.5096 17.34 54.7296 17.34H54.3996C53.4396 17.34 52.9596 17.74 52.9596 18.54V21.69C52.9396 22.49 53.4196 22.89 54.3996 22.89Z" fill="#5F556D"/>
<path d="M95.0907 0.270276L95.0633 0.122801L95.0907 0.270275C96.1789 0.0680331 97.0699 0.120732 97.8128 0.429109C98.5542 0.736855 99.1652 1.30637 99.6813 2.17004C100.988 4.35655 100.911 7.11086 99.4138 10.1742C98.3016 12.4499 97.2098 13.9323 96.0478 14.7167C94.8982 15.4928 93.6653 15.5954 92.2313 15.0734C91.5144 14.8125 91.0916 14.5942 90.7565 14.2346C90.4176 13.8706 90.1568 13.3498 89.7979 12.4521C88.7451 9.81849 88.8794 6.9898 89.8741 4.71034C90.8689 2.43074 92.7182 0.711169 95.0907 0.270276ZM107.79 4.9113L107.79 4.9113C109.365 4.71608 110.666 4.98579 111.654 5.66667C112.641 6.34724 113.335 7.45157 113.672 8.96245C114.089 10.8293 113.608 13.1532 112.559 15.2376C111.51 17.3214 109.907 19.1376 108.111 20.0024L108.176 20.1375L108.111 20.0024C106.857 20.6067 105.725 20.7859 104.762 20.6209C103.8 20.4563 102.993 19.9471 102.387 19.1503C101.171 17.5512 100.758 14.7801 101.597 11.3318C101.89 10.1283 102.101 9.42662 102.447 8.82486C102.792 8.22384 103.276 7.71336 104.138 6.90489L104.138 6.90488C105.512 5.61588 106.533 5.06689 107.79 4.9113ZM93.6334 22.1011L93.6334 22.1011C94.9875 22.0742 96.1601 22.5008 97.1076 23.3343C98.0572 24.1696 98.789 25.4212 99.2432 27.0555L99.3877 27.0153L99.2432 27.0555C100.423 31.2996 101.322 33.0917 103.289 35.058C104.515 36.285 105.246 37.3048 105.542 38.2303C105.834 39.1443 105.706 39.9798 105.179 40.8588C104.721 41.6203 104.198 42.1757 103.582 42.5345C102.968 42.8928 102.25 43.0611 101.394 43.0322C99.6728 42.9741 97.4069 42.12 94.3426 40.4322C92.2648 39.2879 91.191 38.7 90.1032 38.334C89.0139 37.9675 87.9136 37.8244 85.7892 37.5546L85.7703 37.7034L85.7892 37.5546C83.2847 37.2369 81.6471 36.8867 80.4721 36.3275C79.3075 35.7732 78.5902 35.0099 77.9375 33.8405L77.8065 33.9136L77.9375 33.8404C77.4701 33.0033 77.3969 32.0143 77.5899 31.0504C77.7813 30.0942 78.2329 29.1735 78.8037 28.4721C80.611 27.2659 81.9338 26.7297 83.5815 26.0618C84.1597 25.8275 84.7779 25.5769 85.4711 25.2754L85.4725 25.2748C87.415 24.4054 89.3095 23.6128 90.7964 23.0362C91.5401 22.7479 92.1805 22.5141 92.6734 22.3519C92.92 22.2708 93.1281 22.208 93.293 22.1654C93.4617 22.1217 93.5736 22.1022 93.6334 22.1011ZM78.0411 23.66C77.1013 23.1446 76.3631 22.2851 75.8255 21.0593C74.0463 17.0009 75.88 12.5283 80.1899 10.4939C81.5366 9.85821 82.4625 9.60225 83.2376 9.72089C84.005 9.83834 84.6591 10.3291 85.4469 11.2858C86.0023 11.9604 86.4241 13.1424 86.6239 14.391C86.8235 15.6389 86.7955 16.9163 86.4832 17.7743C86.0775 18.889 85.2713 20.1274 84.3156 21.1992C83.3592 22.2718 82.2659 23.1631 81.2955 23.5961C80.441 23.9774 79.9436 24.1549 79.5059 24.1624C79.0757 24.1698 78.6847 24.0129 78.0411 23.66L77.969 23.7915L78.0411 23.66ZM105.159 27.3676C105.95 25.9632 107.58 24.4097 109.335 23.209C110.211 22.6099 111.113 22.1022 111.951 21.7467C112.791 21.3902 113.555 21.1918 114.157 21.1995C115.878 21.2215 117.104 22.2559 117.641 23.7655C118.179 25.2801 118.022 27.276 116.947 29.1853C116.415 30.1296 115.415 31.2369 114.298 32.1948C113.181 33.1534 111.967 33.9468 111.016 34.2766C108.709 35.0773 106.656 34.3938 105.474 32.9995C104.293 31.6054 103.968 29.4829 105.159 27.3676Z" fill="#921FED" stroke="#090808" stroke-width="0.3"/>
<path d="M98.0922 25.9793C97.0692 24.6237 96.6971 22.9641 96.9063 21.4848C97.1156 20.0052 97.9032 18.7189 99.187 18.0861L99.1207 17.9516L99.187 18.0861C99.7789 17.7944 100.292 17.6848 100.757 17.7424C101.22 17.7999 101.654 18.0257 102.085 18.4402C103.174 19.4879 103.571 21.0879 103.196 23.1097C102.917 24.6179 102.524 25.6495 101.986 26.2849C101.458 26.9089 100.779 27.1634 99.8804 27.0927C99.4251 27.0568 99.157 26.9987 98.9177 26.8507C98.6734 26.6996 98.4445 26.446 98.0922 25.9793ZM98.0922 25.9793L97.9725 26.0697L98.0922 25.9793ZM107.292 18.7371L107.292 18.7371C108.164 18.3713 108.946 18.3209 109.61 18.5522C110.274 18.7834 110.844 19.3037 111.276 20.1224C111.809 21.1301 111.904 22.5518 111.631 23.933C111.359 25.3135 110.724 26.6224 109.835 27.4085L109.835 27.4085C109.211 27.9595 108.595 28.2411 108.025 28.2996C107.458 28.358 106.923 28.1965 106.455 27.8379C105.514 27.1161 104.833 25.5843 104.767 23.4407C104.743 22.6893 104.754 22.2524 104.855 21.8533C104.957 21.4552 105.152 21.0846 105.522 20.4719L105.522 20.4719C106.108 19.5011 106.604 19.0256 107.292 18.7371ZM93.0379 34.4193L93.0033 34.5652L93.0379 34.4193C92.4261 34.2744 91.8709 33.9011 91.3689 33.2797C89.7085 31.2236 90.0466 28.3464 92.1984 26.4753C92.8766 25.8856 93.3606 25.5967 93.8096 25.5424C94.2506 25.4892 94.693 25.659 95.2996 26.0876C95.7172 26.3828 96.1459 26.9941 96.4602 27.6877C96.7741 28.3804 96.9585 29.1212 96.9161 29.6596C96.8603 30.3678 96.5942 31.2154 96.2141 31.9928C95.8334 32.7713 95.3468 33.462 94.8624 33.8654C94.4267 34.2281 94.1757 34.4044 93.9366 34.4759C93.7049 34.5452 93.4669 34.5208 93.0379 34.4193ZM101.833 31.0882L101.833 31.0882C102.6 30.8566 103.333 30.9147 104.002 31.241C104.673 31.5686 105.29 32.1717 105.812 33.0463C107.179 35.3395 107.994 36.2509 109.462 37.0882C110.368 37.6047 110.945 38.0762 111.257 38.5571C111.563 39.028 111.622 39.5196 111.461 40.1054C111.32 40.6181 111.109 41.0182 110.818 41.3191C110.528 41.6192 110.15 41.8292 109.658 41.9492C108.665 42.1912 107.227 42.0635 105.18 41.575C103.794 41.2442 103.071 41.0733 102.375 41.0357C101.677 40.9981 101.009 41.0945 99.7361 41.2817L99.7361 41.2817C98.2332 41.5028 97.2359 41.5627 96.4754 41.4286C95.7262 41.2965 95.1987 40.9745 94.6393 40.4037L94.6393 40.4037C94.2464 40.0029 94.049 39.4512 94.0071 38.8662C93.9656 38.2888 94.0767 37.69 94.2893 37.1971C95.137 36.2077 95.8112 35.6846 96.6561 35.0291C96.9543 34.7978 97.2738 34.5499 97.6297 34.2592L97.631 34.2581C98.6173 33.4348 99.588 32.6643 100.357 32.0864C100.741 31.7973 101.074 31.5573 101.333 31.3831C101.462 31.296 101.572 31.2263 101.659 31.1755C101.75 31.1226 101.806 31.0964 101.833 31.0882ZM94.5322 40.5087C95.6846 41.6846 96.7503 41.8727 99.758 41.4301L94.5322 40.5087ZM109.402 32.2517C109.632 31.3143 110.322 30.1494 111.145 29.1657C111.554 28.6755 111.993 28.235 112.418 27.8941C112.846 27.5513 113.249 27.3171 113.588 27.2269C114.562 26.9674 115.414 27.3596 115.955 28.1371C116.499 28.9191 116.727 30.0936 116.413 31.3708C116.258 32.0001 115.859 32.8035 115.367 33.542C114.875 34.2813 114.303 34.9353 113.814 35.2765C112.623 36.106 111.35 36.0383 110.464 35.4302C109.577 34.8221 109.056 33.6597 109.402 32.2517Z" fill="#FFCF32" stroke="#090808" stroke-width="0.3"/>
<path d="M130.84 18C129.933 18 129.267 17.96 128.84 17.88C128.413 17.8 128.2 17.7067 128.2 17.6L129 15.86C129.307 15.9133 130.067 15.9667 131.28 16.02C132.507 16.06 134.187 16.08 136.32 16.08H136.7C137.273 16.08 137.68 15.98 137.92 15.78C138.16 15.5667 138.28 15.2133 138.28 14.72V14.32C138.28 13.8533 138.18 13.52 137.98 13.32C137.793 13.12 137.367 13.02 136.7 13.02H132.06C130.713 13.02 129.733 12.7733 129.12 12.28C128.507 11.7733 128.2 10.9533 128.2 9.82V9.5C128.2 8.91333 128.307 8.37333 128.52 7.88C128.747 7.38667 129.127 6.99333 129.66 6.7C130.193 6.39333 130.927 6.24 131.86 6.24H137.3C138.207 6.24 138.94 6.28667 139.5 6.38C140.06 6.47333 140.34 6.57333 140.34 6.68L139.94 8.36C139.593 8.32 138.807 8.28 137.58 8.24C136.353 8.18667 134.707 8.16 132.64 8.16L132.42 8.14C131.807 8.14 131.393 8.26667 131.18 8.52C130.967 8.76 130.853 9.06667 130.84 9.44V9.78C130.84 10.22 130.96 10.5533 131.2 10.78C131.453 10.9933 131.867 11.1 132.44 11.1H136.88C137.733 11.1 138.46 11.1867 139.06 11.36C139.66 11.5333 140.12 11.8533 140.44 12.32C140.76 12.7733 140.92 13.4467 140.92 14.34V14.66C140.92 15.66 140.66 16.4667 140.14 17.08C139.633 17.6933 138.747 18 137.48 18H130.84ZM145.996 18C144.983 18 144.29 17.7867 143.916 17.36C143.543 16.9333 143.356 16.2933 143.356 15.44V10.76H141.716V9.04H142.556C142.81 9.04 142.99 9 143.096 8.92C143.216 8.84 143.303 8.68 143.356 8.44L143.756 6.3H145.796V9.04H149.956V10.76H145.796V15.46C145.796 15.7933 145.876 16.0133 146.036 16.12C146.196 16.2267 146.436 16.28 146.756 16.28H149.576L149.776 17.8C149.496 17.84 149.07 17.8867 148.496 17.94C147.923 17.98 147.296 18 146.616 18H145.996ZM154.139 18C153.126 18 152.393 17.7667 151.939 17.3C151.486 16.82 151.259 16.1667 151.259 15.34C151.259 14.4733 151.493 13.8067 151.959 13.34C152.439 12.8733 153.166 12.64 154.139 12.64H155.159C156.159 12.64 157.059 12.6667 157.859 12.72C158.659 12.7733 159.319 12.8267 159.839 12.88V11.56C159.839 11.44 159.826 11.32 159.799 11.2C159.773 11.0667 159.693 10.96 159.559 10.88C159.426 10.8 159.199 10.76 158.879 10.76H157.879C156.426 10.76 155.213 10.7867 154.239 10.84C153.266 10.88 152.606 10.92 152.259 10.96L152.039 9.44C152.039 9.25333 152.546 9.14 153.559 9.1C154.573 9.06 156.266 9.04 158.639 9.04H159.639C160.306 9.04 160.819 9.13333 161.179 9.32C161.539 9.50667 161.793 9.74 161.939 10.02C162.099 10.3 162.193 10.5867 162.219 10.88C162.259 11.16 162.279 11.4 162.279 11.6V18H160.639L159.859 17.6C159.299 17.6933 158.626 17.7867 157.839 17.88C157.053 17.96 156.153 18 155.139 18H154.139ZM154.659 16.28H159.239C159.533 16.28 159.706 16.2533 159.759 16.2C159.813 16.1467 159.839 15.98 159.839 15.7V14.16H154.659C154.299 14.16 154.046 14.2467 153.899 14.42C153.766 14.5933 153.699 14.8667 153.699 15.24C153.699 15.6133 153.779 15.88 153.939 16.04C154.099 16.2 154.339 16.28 154.659 16.28ZM164.587 18V9.04H166.227L166.987 9.44C167.333 9.25333 167.707 9.10667 168.107 9C168.507 8.89333 169.013 8.84 169.627 8.84C170.6 8.84 171.387 8.94667 171.987 9.16C172.6 9.37333 173.007 9.53333 173.207 9.64L172.507 11.38C172.347 11.3 172.08 11.2 171.707 11.08C171.347 10.9467 170.92 10.8267 170.427 10.72C169.933 10.6133 169.393 10.56 168.807 10.56H168.587C167.947 10.56 167.527 10.6867 167.327 10.94C167.14 11.1933 167.04 11.6133 167.027 12.2V18H164.587Z" fill="#5F556D"/>
<path d="M132.06 32C131.113 32 130.373 31.8667 129.84 31.6C129.307 31.3333 128.933 30.9333 128.72 30.4C128.507 29.8667 128.4 29.2067 128.4 28.42V23.96C128.4 22.68 128.687 21.74 129.26 21.14C129.833 20.5267 130.767 20.22 132.06 20.22H138.08C139 20.22 139.7 20.2733 140.18 20.38C140.673 20.4733 140.92 20.5733 140.92 20.68L140.52 22.34C140.293 22.3 139.62 22.26 138.5 22.22C137.393 22.1667 135.78 22.14 133.66 22.14H132.64C131.573 22.14 131.04 22.6133 131.04 23.56V28.66C131.04 29.1133 131.153 29.4667 131.38 29.72C131.62 29.96 132.04 30.08 132.64 30.08H133.46C134.74 30.08 135.82 30.0733 136.7 30.06C137.58 30.0333 138.307 30.0133 138.88 30V27.28L137.68 27.3L135.06 27.5V25.54H141.5V31.16L141.7 31.58C141.7 31.6867 141.42 31.7867 140.86 31.88C140.3 31.96 139.353 32 138.02 32H132.06ZM146.678 32C145.665 32 144.932 31.7667 144.478 31.3C144.025 30.82 143.798 30.1667 143.798 29.34C143.798 28.4733 144.032 27.8067 144.498 27.34C144.978 26.8733 145.705 26.64 146.678 26.64H147.698C148.698 26.64 149.598 26.6667 150.398 26.72C151.198 26.7733 151.858 26.8267 152.378 26.88V25.56C152.378 25.44 152.365 25.32 152.338 25.2C152.312 25.0667 152.232 24.96 152.098 24.88C151.965 24.8 151.738 24.76 151.418 24.76H150.418C148.965 24.76 147.752 24.7867 146.778 24.84C145.805 24.88 145.145 24.92 144.798 24.96L144.578 23.44C144.578 23.2533 145.085 23.14 146.098 23.1C147.112 23.06 148.805 23.04 151.178 23.04H152.178C152.845 23.04 153.358 23.1333 153.718 23.32C154.078 23.5067 154.332 23.74 154.478 24.02C154.638 24.3 154.732 24.5867 154.758 24.88C154.798 25.16 154.818 25.4 154.818 25.6V32H153.178L152.398 31.6C151.838 31.6933 151.165 31.7867 150.378 31.88C149.592 31.96 148.692 32 147.678 32H146.678ZM147.198 30.28H151.778C152.072 30.28 152.245 30.2533 152.298 30.2C152.352 30.1467 152.378 29.98 152.378 29.7V28.16H147.198C146.838 28.16 146.585 28.2467 146.438 28.42C146.305 28.5933 146.238 28.8667 146.238 29.24C146.238 29.6133 146.318 29.88 146.478 30.04C146.638 30.2 146.878 30.28 147.198 30.28ZM157.326 32V20.92L157.126 19.32H159.766V32H157.326ZM162.365 32V20.92L162.165 19.32H164.805V32H162.365ZM169.644 32C168.977 32 168.464 31.9133 168.104 31.74C167.744 31.5667 167.484 31.3467 167.324 31.08C167.177 30.8133 167.084 30.5333 167.044 30.24C167.017 29.9467 167.004 29.68 167.004 29.44V25.6C167.004 25.4 167.017 25.16 167.044 24.88C167.084 24.5867 167.177 24.3 167.324 24.02C167.484 23.74 167.744 23.5067 168.104 23.32C168.477 23.1333 168.991 23.04 169.644 23.04H173.944C174.824 23.04 175.511 23.1267 176.004 23.3C176.511 23.46 176.864 23.7267 177.064 24.1C177.277 24.4733 177.384 24.9733 177.384 25.6V28.56H173.884C172.684 28.56 171.704 28.5333 170.944 28.48C170.197 28.4267 169.697 28.3933 169.444 28.38V29.48C169.431 30.0133 169.751 30.28 170.404 30.28H171.424C172.144 30.28 172.844 30.2733 173.524 30.26C174.217 30.2333 174.851 30.2067 175.424 30.18C175.997 30.14 176.457 30.1067 176.804 30.08L177.604 31.38C177.604 31.7933 176.291 32 173.664 32H169.644ZM169.444 26.84H174.944V25.56C174.944 25.2933 174.911 25.1067 174.844 25C174.791 24.8933 174.617 24.8267 174.324 24.8C174.031 24.7733 173.531 24.76 172.824 24.76H170.404C169.764 24.76 169.444 25.0267 169.444 25.56V26.84ZM179.606 32V23.04H181.246L182.006 23.44C182.353 23.2533 182.726 23.1067 183.126 23C183.526 22.8933 184.033 22.84 184.646 22.84C185.62 22.84 186.406 22.9467 187.006 23.16C187.62 23.3733 188.026 23.5333 188.226 23.64L187.526 25.38C187.366 25.3 187.1 25.2 186.726 25.08C186.366 24.9467 185.94 24.8267 185.446 24.72C184.953 24.6133 184.413 24.56 183.826 24.56H183.606C182.966 24.56 182.546 24.6867 182.346 24.94C182.16 25.1933 182.06 25.6133 182.046 26.2V32H179.606ZM190.466 35.92C189.826 35.92 189.239 35.8467 188.706 35.7C188.172 35.5533 187.812 35.42 187.626 35.3L188.226 33.5C188.452 33.5933 188.772 33.7 189.186 33.82C189.612 33.9533 190.092 34.02 190.626 34.02H190.846C191.459 34.02 191.999 33.8333 192.466 33.46C192.946 33.1 193.312 32.6133 193.566 32H192.566L188.646 23.04H191.446L193.746 28.56L194.266 30H194.466L194.986 28.56L197.326 23.04H200.046L199.726 24.26C199.472 24.78 199.179 25.38 198.846 26.06C198.526 26.7267 198.192 27.42 197.846 28.14C197.499 28.86 197.159 29.5533 196.826 30.22C196.506 30.8867 196.219 31.48 195.966 32C195.579 32.8 195.152 33.4933 194.686 34.08C194.232 34.6667 193.706 35.12 193.106 35.44C192.519 35.76 191.819 35.92 191.006 35.92H190.466Z" fill="#5F556D"/>
</svg>
